<svg _ngcontent-serverApp-c42="" id="Layer_1" data-name="Layer 1" xmlns="http://www.w3.org/2000/svg" viewBox="0 0 500 500" height="25" width="25"><path _ngcontent-serverApp-c42="" d="M171.88,52.08a68,68,0,0,0-67.71,67.71v312.5A15.63,15.63,0,0,0,128.93,445L250,357.79,371.07,445a15.62,15.62,0,0,0,24.76-12.68V119.79a68,68,0,0,0-67.7-67.71Zm0,31.25H328.13a36.23,36.23,0,0,1,36.45,36.46v282L259.13,325.87a15.61,15.61,0,0,0-18.26,0L135.42,401.79v-282A36.23,36.23,0,0,1,171.88,83.33Z" class="cls-1"></path></svg>